<?xml version="1.0" encoding="UTF-8"?>
<svg id="bg-pattern" xmlns="http://www.w3.org/2000/svg" viewBox="0 0 2000 2000">
  <defs>
    <style>
      .cls-1 {
        fill: #2a4494;
      }
    </style>
  </defs>
  <path class="cls-1" d="M45.46,500h0c0,12.14-4.73,23.56-13.31,32.15C23.56,540.73,12.14,545.46,0,545.46v45.46c50.21,0,90.91-40.7,90.91-90.91S50.21,409.09,0,409.09v45.46c12.14,0,23.56,4.73,32.15,13.31,8.58,8.59,13.31,20,13.31,32.14Z"/>
  <path class="cls-1" d="M500,181.82c30.47,0,60.27,4.23,89.01,12.59h0c11.8,3.44,23.41,7.57,34.83,12.4,11.38,4.81,22.52,10.32,33.3,16.46h0c7.07,4.03,13.99,8.32,20.72,12.87,16.86,11.39,32.71,24.47,47.12,38.87,14.41,14.41,27.49,30.26,38.87,47.12,4.55,6.74,8.84,13.65,12.87,20.72h0c6.13,10.79,11.64,21.93,16.46,33.31,4.82,11.41,8.96,23.03,12.4,34.83h0c8.36,28.74,12.59,58.55,12.59,89.01s-4.23,60.27-12.59,89.01h0c-3.44,11.81-7.57,23.42-12.4,34.83-4.81,11.38-10.32,22.52-16.46,33.3h0c-4.02,7.08-8.32,13.99-12.87,20.73-11.39,16.86-24.47,32.71-38.87,47.12-14.41,14.41-30.26,27.49-47.12,38.87-6.74,4.55-13.65,8.84-20.72,12.87h0c-10.78,6.14-21.92,11.65-33.3,16.46-11.41,4.82-23.03,8.96-34.83,12.4h0c-28.74,8.36-58.54,12.59-89.01,12.59-100.42,0-181.82,81.4-181.82,181.82s81.4,181.82,181.82,181.82c30.47,0,60.27,4.23,89.01,12.59h0c11.8,3.44,23.41,7.57,34.83,12.4,11.38,4.81,22.52,10.32,33.3,16.46h0c7.07,4.03,13.99,8.32,20.72,12.87,16.86,11.39,32.71,24.47,47.12,38.87,14.41,14.41,27.49,30.26,38.87,47.12,4.55,6.74,8.84,13.65,12.87,20.72h0c6.13,10.79,11.64,21.93,16.46,33.31,4.82,11.41,8.96,23.03,12.4,34.83h0c8.36,28.74,12.59,58.55,12.59,89.01s-4.23,60.27-12.59,89.01h0c-3.44,11.81-7.57,23.42-12.4,34.83-4.81,11.38-10.32,22.52-16.46,33.3h0c-4.02,7.08-8.32,13.99-12.87,20.73-11.39,16.86-24.47,32.71-38.87,47.12-14.41,14.41-30.26,27.49-47.12,38.87-6.74,4.55-13.65,8.84-20.72,12.87h0c-10.78,6.14-21.92,11.65-33.3,16.46-11.41,4.83-23.03,8.96-34.83,12.4h0c-28.74,8.36-58.54,12.59-89.01,12.59v45.45c23.36,0,46.2-2.2,68.33-6.41,18.52-3.52,36.54-8.44,53.95-14.66h0c23.71-8.47,46.29-19.33,67.44-32.29,49.07-30.07,90.46-71.46,120.53-120.53,12.96-21.15,23.83-43.73,32.29-67.44h0c6.22-17.42,11.14-35.44,14.66-53.96,4.21-22.13,6.41-44.97,6.41-68.33s-2.2-46.2-6.41-68.33c-3.52-18.52-8.44-36.54-14.66-53.95h0c-8.47-23.72-19.33-46.3-32.29-67.45-30.07-49.07-71.46-90.46-120.53-120.53-21.15-12.96-43.73-23.83-67.44-32.29h0c-17.41-6.22-35.43-11.14-53.95-14.66-22.13-4.21-44.97-6.41-68.33-6.41-18.43,0-36.28-3.6-53.06-10.7-16.24-6.87-30.83-16.7-43.36-29.24-12.54-12.53-22.38-27.12-29.24-43.36-7.1-16.78-10.7-34.64-10.7-53.06h0c0-18.43,3.6-36.28,10.7-53.06,6.87-16.24,16.7-30.83,29.24-43.36,12.53-12.54,27.12-22.38,43.36-29.24,16.78-7.1,34.64-10.7,53.06-10.7,23.36,0,46.2-2.2,68.33-6.41,18.52-3.52,36.54-8.44,53.95-14.66h0c23.71-8.47,46.29-19.33,67.44-32.29,49.07-30.07,90.46-71.46,120.53-120.53,12.96-21.15,23.83-43.73,32.29-67.44h0c6.22-17.42,11.14-35.44,14.66-53.96,4.21-22.13,6.41-44.97,6.41-68.33s-2.2-46.2-6.41-68.33c-3.52-18.52-8.44-36.54-14.66-53.95h0c-8.47-23.72-19.33-46.3-32.29-67.45-30.07-49.07-71.46-90.46-120.53-120.53-21.15-12.96-43.73-23.83-67.44-32.29h0c-17.41-6.22-35.43-11.14-53.95-14.66-22.13-4.21-44.97-6.41-68.33-6.41-18.43,0-36.28-3.6-53.06-10.7-16.24-6.87-30.83-16.7-43.36-29.24-12.54-12.53-22.38-27.12-29.24-43.36C367.23,36.28,363.63,18.43,363.63,0h-45.45c0,100.42,81.4,181.82,181.82,181.82Z"/>
  <path class="cls-1" d="M96.42,403.58c12.54,12.53,22.38,27.12,29.24,43.36,7.1,16.78,10.7,34.64,10.7,53.06s-3.6,36.28-10.7,53.06c-6.87,16.24-16.7,30.83-29.24,43.36-12.53,12.54-27.12,22.38-43.36,29.24-16.78,7.1-34.64,10.7-53.06,10.7v45.45c100.42,0,181.82-81.4,181.82-181.82S100.42,318.18,0,318.18v45.45c18.43,0,36.28,3.6,53.06,10.7,16.24,6.87,30.83,16.7,43.36,29.24Z"/>
  <path class="cls-1" d="M374.36,242.12c37.6,19.56,80.34,30.61,125.64,30.61,30.71,0,60.46,6,88.45,17.84,27.06,11.44,51.37,27.83,72.26,48.72,20.89,20.89,37.28,45.2,48.72,72.26,11.84,27.99,17.84,57.75,17.84,88.45s-6,60.46-17.84,88.45c-11.44,27.06-27.83,51.37-48.72,72.26-20.89,20.89-45.2,37.28-72.26,48.72-27.99,11.84-57.75,17.84-88.45,17.84-45.31,0-88.04,11.05-125.64,30.61-49.79,25.88-90.59,66.68-116.48,116.48-19.56,37.6-30.61,80.34-30.61,125.64s11.05,88.04,30.61,125.64c25.88,49.79,66.68,90.59,116.48,116.48,37.6,19.56,80.34,30.61,125.64,30.61h0c30.71,0,60.46,6,88.45,17.84,27.06,11.44,51.37,27.83,72.26,48.72,20.89,20.89,37.28,45.2,48.72,72.26,11.84,27.99,17.84,57.75,17.84,88.45s-6,60.46-17.84,88.45c-11.44,27.06-27.83,51.37-48.72,72.26-20.89,20.89-45.2,37.28-72.26,48.72-27.99,11.84-57.75,17.84-88.45,17.84v45.46c45.31,0,88.04-11.05,125.64-30.61,49.79-25.88,90.59-66.68,116.48-116.48,19.56-37.6,30.61-80.34,30.61-125.64s-11.05-88.04-30.61-125.64c-25.88-49.79-66.68-90.59-116.48-116.48-37.6-19.56-80.34-30.61-125.64-30.61h0c-30.71,0-60.46-6-88.45-17.84-27.06-11.44-51.37-27.83-72.26-48.72-20.89-20.89-37.28-45.2-48.72-72.26-11.84-27.99-17.84-57.75-17.84-88.45s6-60.46,17.84-88.45c11.44-27.06,27.83-51.37,48.72-72.26,20.89-20.89,45.2-37.28,72.26-48.72,27.99-11.84,57.75-17.84,88.45-17.84,45.31,0,88.04-11.05,125.64-30.61,49.79-25.88,90.59-66.68,116.48-116.48,19.56-37.6,30.61-80.34,30.61-125.64s-11.05-88.04-30.61-125.64c-25.88-49.79-66.68-90.59-116.48-116.48-37.6-19.56-80.34-30.61-125.64-30.61-30.71,0-60.46-6-88.45-17.84-27.06-11.44-51.37-27.83-72.26-48.72-20.89-20.89-37.28-45.2-48.72-72.26C278.73,60.46,272.73,30.71,272.73,0h-45.46c0,45.31,11.05,88.04,30.61,125.64,25.88,49.79,66.68,90.59,116.48,116.48Z"/>
  <path class="cls-1" d="M157.44,122.29h0c8.47,23.72,19.33,46.3,32.29,67.45,30.07,49.07,71.46,90.46,120.53,120.53,21.15,12.96,43.73,23.83,67.44,32.29h0c17.41,6.22,35.43,11.14,53.95,14.66,22.13,4.21,44.97,6.41,68.33,6.41,18.43,0,36.28,3.6,53.06,10.7,16.24,6.87,30.83,16.7,43.36,29.24,12.54,12.53,22.38,27.12,29.24,43.36,7.1,16.78,10.7,34.64,10.7,53.06s-3.6,36.28-10.7,53.06c-6.87,16.24-16.7,30.83-29.24,43.36-12.53,12.54-27.12,22.38-43.36,29.24-16.78,7.1-34.64,10.7-53.06,10.7-23.36,0-46.2,2.2-68.33,6.41-18.52,3.52-36.54,8.44-53.95,14.66h0c-23.71,8.47-46.29,19.33-67.44,32.29-49.07,30.07-90.46,71.46-120.53,120.53-12.96,21.15-23.83,43.73-32.29,67.44h0c-6.22,17.42-11.14,35.44-14.66,53.96-4.21,22.13-6.41,44.97-6.41,68.33h0c0,23.36,2.2,46.2,6.41,68.33,3.52,18.52,8.44,36.54,14.66,53.95h0c8.47,23.72,19.33,46.3,32.29,67.45,30.07,49.07,71.46,90.46,120.53,120.53,21.15,12.96,43.73,23.83,67.44,32.29h0c17.41,6.22,35.43,11.14,53.95,14.66,22.13,4.21,44.97,6.41,68.33,6.41,18.43,0,36.28,3.6,53.06,10.7,16.24,6.87,30.83,16.7,43.36,29.24,12.54,12.53,22.38,27.12,29.24,43.36,7.1,16.78,10.7,34.64,10.7,53.06s-3.6,36.28-10.7,53.06c-6.87,16.24-16.7,30.83-29.24,43.36-12.53,12.54-27.12,22.38-43.36,29.24-16.78,7.1-34.64,10.7-53.06,10.7v45.45c100.42,0,181.82-81.4,181.82-181.82s-81.4-181.82-181.82-181.82h0c-30.47,0-60.27-4.23-89.01-12.59h0c-11.8-3.44-23.41-7.57-34.83-12.4-11.38-4.81-22.52-10.32-33.3-16.46h0c-7.07-4.03-13.99-8.32-20.72-12.87-16.86-11.39-32.71-24.47-47.12-38.87-14.41-14.41-27.49-30.26-38.87-47.12-4.55-6.74-8.84-13.65-12.87-20.72h0c-6.13-10.79-11.64-21.93-16.46-33.31-4.83-11.41-8.96-23.03-12.4-34.83h0c-8.36-28.74-12.59-58.55-12.59-89.01h0c0-30.47,4.23-60.27,12.59-89.01h0c3.44-11.81,7.57-23.42,12.4-34.83,4.81-11.38,10.32-22.52,16.46-33.3h0c4.02-7.08,8.32-13.99,12.87-20.73,11.39-16.86,24.47-32.71,38.87-47.12,14.41-14.41,30.26-27.49,47.12-38.87,6.74-4.55,13.65-8.84,20.72-12.87h0c10.78-6.14,21.92-11.65,33.3-16.46,11.41-4.82,23.03-8.96,34.83-12.4h0c28.74-8.36,58.54-12.59,89.01-12.59,100.42,0,181.82-81.4,181.82-181.82s-81.4-181.82-181.82-181.82c-30.47,0-60.27-4.23-89.01-12.59h0c-11.8-3.44-23.41-7.57-34.83-12.4-11.38-4.81-22.52-10.32-33.3-16.46h0c-7.07-4.03-13.99-8.32-20.72-12.87-16.86-11.39-32.71-24.47-47.12-38.87-14.41-14.41-27.49-30.26-38.87-47.12-4.55-6.74-8.84-13.65-12.87-20.72h0c-6.13-10.79-11.64-21.93-16.46-33.31-4.82-11.41-8.96-23.03-12.4-34.83h0C186.04,60.27,181.82,30.47,181.82,0h-45.45c0,23.36,2.2,46.2,6.41,68.33,3.52,18.52,8.44,36.54,14.66,53.95Z"/>
  <path class="cls-1" d="M1000,90.91c50.21,0,90.91-40.7,90.91-90.91h-45.46c0,12.14-4.73,23.56-13.31,32.14-8.59,8.58-20,13.31-32.15,13.31s-23.56-4.73-32.15-13.31C959.27,23.56,954.54,12.14,954.54,0h-45.46c0,50.21,40.7,90.91,90.91,90.91Z"/>
  <path class="cls-1" d="M1000,181.82C1100.42,181.82,1181.82,100.42,1181.82,0h-45.45c0,18.43-3.6,36.28-10.7,53.06-6.87,16.24-16.7,30.83-29.24,43.36-12.53,12.54-27.12,22.38-43.36,29.24-16.78,7.1-34.64,10.7-53.06,10.7s-36.28-3.6-53.06-10.7c-16.24-6.87-30.83-16.7-43.36-29.24-12.54-12.53-22.38-27.12-29.24-43.36-7.1-16.78-10.7-34.64-10.7-53.06h-45.45c0,100.42,81.4,181.82,181.82,181.82Z"/>
  <path class="cls-1" d="M1967.85,532.14c-8.58-8.59-13.31-20-13.31-32.14h0c0-12.14,4.73-23.56,13.31-32.15,8.59-8.58,20-13.31,32.14-13.31v-45.46c-50.21,0-90.91,40.7-90.91,90.91s40.7,90.91,90.91,90.91v-45.46c-12.14,0-23.56-4.73-32.15-13.31Z"/>
  <path class="cls-1" d="M1500,136.37c-23.36,0-46.2,2.2-68.33,6.41-18.52,3.52-36.54,8.44-53.95,14.66h0c-23.71,8.47-46.29,19.33-67.44,32.29-49.07,30.07-90.46,71.46-120.53,120.53-12.96,21.15-23.83,43.73-32.29,67.44h0c-6.22,17.42-11.14,35.44-14.66,53.96-4.21,22.13-6.41,44.97-6.41,68.33s2.2,46.2,6.41,68.33c3.52,18.52,8.44,36.54,14.66,53.95h0c8.47,23.72,19.33,46.3,32.29,67.45,30.07,49.07,71.46,90.46,120.53,120.53,21.15,12.96,43.73,23.83,67.44,32.29h0c17.41,6.22,35.43,11.14,53.95,14.66,22.13,4.21,44.97,6.41,68.33,6.41,18.43,0,36.28,3.6,53.06,10.7,16.24,6.87,30.83,16.7,43.36,29.24,12.54,12.53,22.38,27.12,29.24,43.36,7.1,16.78,10.7,34.64,10.7,53.06s-3.6,36.28-10.7,53.06c-6.87,16.24-16.7,30.83-29.24,43.36-12.53,12.54-27.12,22.38-43.36,29.24-16.78,7.1-34.64,10.7-53.06,10.7v45.45c100.42,0,181.82-81.4,181.82-181.82s-81.4-181.82-181.82-181.82h0c-30.47,0-60.27-4.23-89.01-12.59h0c-11.8-3.44-23.41-7.57-34.83-12.4-11.38-4.81-22.52-10.32-33.3-16.46h0c-7.07-4.03-13.99-8.32-20.72-12.87-16.86-11.39-32.71-24.47-47.12-38.87-14.41-14.41-27.49-30.26-38.87-47.12-4.55-6.74-8.84-13.65-12.87-20.72h0c-6.13-10.79-11.64-21.93-16.46-33.31-4.82-11.41-8.96-23.03-12.4-34.83h0c-8.36-28.74-12.59-58.55-12.59-89.01s4.23-60.27,12.59-89.01h0c3.44-11.81,7.57-23.42,12.4-34.83,4.81-11.38,10.32-22.52,16.46-33.3h0c4.02-7.08,8.32-13.99,12.87-20.73,11.39-16.86,24.47-32.71,38.87-47.12,14.41-14.41,30.26-27.49,47.12-38.87,6.74-4.55,13.65-8.84,20.72-12.87h0c10.78-6.14,21.92-11.65,33.3-16.46,11.41-4.83,23.03-8.96,34.83-12.4h0c28.74-8.36,58.54-12.59,89.01-12.59v-45.45Z"/>
  <path class="cls-1" d="M1903.58,596.42c-12.54-12.53-22.38-27.12-29.24-43.36-7.1-16.78-10.7-34.64-10.7-53.06s3.6-36.28,10.7-53.06c6.87-16.24,16.7-30.83,29.24-43.36,12.53-12.54,27.12-22.38,43.36-29.24,16.78-7.1,34.64-10.7,53.06-10.7v-45.45c-100.42,0-181.82,81.4-181.82,181.82s81.4,181.82,181.82,181.82v-45.45c-18.43,0-36.28-3.6-53.06-10.7-16.24-6.87-30.83-16.7-43.36-29.24Z"/>
  <path class="cls-1" d="M1500,227.27c-45.31,0-88.04,11.05-125.64,30.61-49.79,25.88-90.59,66.68-116.48,116.48-19.56,37.6-30.61,80.34-30.61,125.64s11.05,88.04,30.61,125.64c25.88,49.79,66.68,90.59,116.48,116.48,37.6,19.56,80.34,30.61,125.64,30.61,30.71,0,60.46,6,88.45,17.84,27.06,11.44,51.37,27.83,72.26,48.72,20.89,20.89,37.28,45.2,48.72,72.26,11.84,27.99,17.84,57.75,17.84,88.45s-6,60.46-17.84,88.45c-11.44,27.06-27.83,51.37-48.72,72.26-20.89,20.89-45.2,37.28-72.26,48.72-27.99,11.84-57.75,17.84-88.45,17.84v45.46c45.31,0,88.04-11.05,125.64-30.61,49.79-25.88,90.59-66.68,116.48-116.48,19.56-37.6,30.61-80.34,30.61-125.64s-11.05-88.04-30.61-125.64c-25.88-49.79-66.68-90.59-116.48-116.48-37.6-19.56-80.34-30.61-125.64-30.61-30.71,0-60.46-6-88.45-17.84-27.06-11.44-51.37-27.83-72.26-48.72-20.89-20.89-37.28-45.2-48.72-72.26-11.84-27.99-17.84-57.75-17.84-88.45s6-60.46,17.84-88.45c11.44-27.06,27.83-51.37,48.72-72.26,20.89-20.89,45.2-37.28,72.26-48.72,27.99-11.84,57.75-17.84,88.45-17.84v-45.46Z"/>
  <path class="cls-1" d="M1403.58,403.58c12.53-12.54,27.12-22.38,43.36-29.24,16.78-7.1,34.64-10.7,53.06-10.7v-45.45c-100.42,0-181.82,81.4-181.82,181.82s81.4,181.82,181.82,181.82c30.47,0,60.27,4.23,89.01,12.59h0c11.8,3.44,23.41,7.57,34.83,12.4,11.38,4.81,22.52,10.32,33.3,16.46h0c7.07,4.03,13.99,8.32,20.72,12.87,16.86,11.39,32.71,24.47,47.12,38.87,14.41,14.41,27.49,30.26,38.87,47.12,4.55,6.74,8.84,13.65,12.87,20.72h0c6.13,10.79,11.64,21.93,16.46,33.31,4.82,11.41,8.96,23.03,12.4,34.83h0c8.36,28.74,12.59,58.55,12.59,89.01s-4.23,60.27-12.59,89.01h0c-3.44,11.81-7.57,23.42-12.4,34.83-4.81,11.38-10.32,22.52-16.46,33.3h0c-4.02,7.08-8.32,13.99-12.87,20.73-11.39,16.86-24.47,32.71-38.87,47.12-14.41,14.41-30.26,27.49-47.12,38.87-6.74,4.55-13.65,8.84-20.72,12.87h0c-10.78,6.14-21.92,11.65-33.3,16.46-11.41,4.82-23.03,8.96-34.83,12.4h0c-28.74,8.36-58.54,12.59-89.01,12.59v45.45c23.36,0,46.2-2.2,68.33-6.41,18.52-3.52,36.54-8.44,53.95-14.66h0c23.71-8.47,46.29-19.33,67.44-32.29,49.07-30.07,90.46-71.46,120.53-120.53,12.96-21.15,23.83-43.73,32.29-67.44h0c6.22-17.42,11.14-35.44,14.66-53.96,4.21-22.13,6.41-44.97,6.41-68.33s-2.2-46.2-6.41-68.33c-3.52-18.52-8.44-36.54-14.66-53.95h0c-8.47-23.72-19.33-46.3-32.29-67.45-30.07-49.07-71.46-90.46-120.53-120.53-21.15-12.96-43.73-23.83-67.44-32.29h0c-17.41-6.22-35.43-11.14-53.95-14.66-22.13-4.21-44.97-6.41-68.33-6.41-18.43,0-36.28-3.6-53.06-10.7-16.24-6.87-30.83-16.7-43.36-29.24-12.54-12.53-22.38-27.12-29.24-43.36-7.1-16.78-10.7-34.64-10.7-53.06s3.6-36.28,10.7-53.06c6.87-16.24,16.7-30.83,29.24-43.36Z"/>
  <path class="cls-1" d="M1839.29,660.71c-20.89-20.89-37.28-45.2-48.72-72.26-11.84-27.99-17.84-57.75-17.84-88.45s6-60.46,17.84-88.45c11.44-27.06,27.83-51.37,48.72-72.26,20.89-20.89,45.2-37.28,72.26-48.72,27.99-11.84,57.75-17.84,88.45-17.84v-45.46c-45.31,0-88.04,11.05-125.64,30.61,13.84-20.05,26.11-41.27,36.63-63.48,7.91-16.68,14.82-33.91,20.68-51.62,5.19-15.69,9.54-31.76,13.01-48.16,3.24-15.29,5.71-30.86,7.36-46.66,1.65-15.76,2.5-31.76,2.5-47.96h-45.46c0,18.53-1.24,37.05-3.71,55.32-1.23,9.12-2.77,18.2-4.6,27.18-1.49,7.32-3.19,14.59-5.1,21.83-4.76,18.09-10.77,35.88-17.97,53.12-.24.6-.5,1.19-.75,1.79-9.41,22.23-20.86,43.75-34.11,64.04-1.18,1.82-2.38,3.63-3.6,5.43-14.64,21.67-31.46,42.05-49.98,60.58-18.52,18.52-38.9,35.34-60.58,49.98-1.8,1.22-3.61,2.42-5.43,3.6-20.29,13.24-41.81,24.7-64.04,34.11-.59.25-1.19.5-1.79.75-17.24,7.2-35.02,13.21-53.12,17.97-7.23,1.9-14.51,3.61-21.83,5.1-8.98,1.84-18.05,3.37-27.18,4.6-18.27,2.47-36.79,3.71-55.32,3.71v45.46c16.2,0,32.2-.85,47.96-2.5,15.81-1.65,31.37-4.13,46.66-7.36,16.4-3.47,32.47-7.82,48.16-13.01,17.71-5.86,34.95-12.77,51.62-20.68,22.21-10.52,43.43-22.79,63.48-36.63-19.56,37.6-30.61,80.34-30.61,125.64s11.05,88.04,30.61,125.64c-20.05-13.84-41.27-26.11-63.48-36.63-16.68-7.91-33.91-14.82-51.62-20.68-15.69-5.19-31.76-9.54-48.16-13.01-15.29-3.24-30.86-5.71-46.66-7.36-15.76-1.65-31.76-2.5-47.96-2.5-12.14,0-23.56-4.73-32.14-13.31-8.58-8.59-13.31-20-13.31-32.14s4.73-23.56,13.31-32.15c8.59-8.58,20-13.31,32.14-13.31v-45.46c-50.21,0-90.91,40.7-90.91,90.91s40.7,90.91,90.91,90.91c18.53,0,37.05,1.24,55.32,3.71,9.12,1.23,18.2,2.76,27.18,4.6,7.32,1.49,14.59,3.19,21.83,5.1,18.09,4.76,35.88,10.77,53.12,17.97.6.24,1.19.5,1.79.75,22.23,9.41,43.75,20.86,64.04,34.11,1.82,1.18,3.63,2.38,5.43,3.6,21.67,14.64,42.05,31.46,60.58,49.98,18.52,18.52,35.34,38.9,49.98,60.58,1.22,1.8,2.42,3.61,3.6,5.43,13.24,20.29,24.7,41.81,34.11,64.04.25.59.5,1.19.75,1.79,7.2,17.24,13.21,35.02,17.97,53.12,1.9,7.23,3.61,14.51,5.1,21.83,1.84,8.98,3.37,18.05,4.6,27.18,2.47,18.27,3.71,36.79,3.71,55.32s-1.24,37.05-3.71,55.32c-1.23,9.12-2.77,18.2-4.6,27.18-1.49,7.32-3.19,14.59-5.1,21.83-4.76,18.09-10.77,35.88-17.97,53.12-.24.6-.5,1.19-.75,1.79-9.41,22.23-20.86,43.75-34.11,64.04-1.18,1.82-2.38,3.63-3.6,5.43-14.64,21.67-31.46,42.05-49.98,60.58-18.52,18.52-38.9,35.34-60.58,49.98-1.8,1.22-3.61,2.42-5.43,3.6-20.29,13.24-41.81,24.7-64.04,34.11-.59.25-1.19.5-1.79.75-17.24,7.2-35.02,13.21-53.12,17.97-7.23,1.91-14.51,3.61-21.83,5.1-8.98,1.84-18.05,3.37-27.18,4.6-18.27,2.47-36.79,3.71-55.32,3.71v45.46c16.2,0,32.2-.85,47.96-2.5,15.81-1.65,31.37-4.13,46.66-7.36,16.4-3.47,32.47-7.82,48.16-13.01,17.71-5.86,34.95-12.77,51.62-20.68,22.21-10.52,43.43-22.79,63.48-36.63-19.56,37.6-30.61,80.34-30.61,125.64s11.05,88.04,30.61,125.64c-20.05-13.84-41.27-26.11-63.48-36.63-16.68-7.91-33.91-14.82-51.62-20.68-15.69-5.19-31.76-9.54-48.16-13.01-15.29-3.24-30.86-5.71-46.66-7.36-15.76-1.65-31.76-2.5-47.96-2.5-12.14,0-23.56-4.73-32.14-13.31-8.58-8.59-13.31-20-13.31-32.15s4.73-23.56,13.31-32.14c8.59-8.58,20-13.31,32.14-13.31v-45.46c-50.21,0-90.91,40.7-90.91,90.91s40.7,90.91,90.91,90.91c18.53,0,37.05,1.24,55.32,3.71,9.12,1.23,18.2,2.76,27.18,4.6,7.32,1.49,14.59,3.19,21.83,5.1,18.09,4.76,35.88,10.77,53.12,17.97.6.24,1.19.5,1.79.75,22.23,9.41,43.75,20.86,64.04,34.11,1.82,1.18,3.63,2.38,5.43,3.6,21.67,14.64,42.05,31.46,60.58,49.98s35.34,38.9,49.98,60.58c1.22,1.8,2.42,3.61,3.6,5.43,13.24,20.29,24.7,41.81,34.11,64.04.25.59.5,1.19.75,1.79,7.2,17.24,13.21,35.02,17.97,53.12,1.9,7.23,3.61,14.51,5.1,21.83,1.84,8.98,3.37,18.05,4.6,27.18,2.47,18.27,3.71,36.79,3.71,55.32h45.46c0-16.2-.85-32.2-2.5-47.96-1.65-15.81-4.13-31.37-7.36-46.66-3.47-16.4-7.82-32.47-13.01-48.16-5.86-17.71-12.77-34.95-20.68-51.62-10.52-22.21-22.79-43.43-36.63-63.48,37.6,19.56,80.34,30.61,125.64,30.61v-45.46c-30.71,0-60.46-6-88.45-17.84-27.06-11.44-51.37-27.83-72.26-48.72-20.89-20.89-37.28-45.2-48.72-72.26-11.84-27.99-17.84-57.75-17.84-88.45s6-60.46,17.84-88.45c11.44-27.06,27.83-51.37,48.72-72.26,20.89-20.89,45.2-37.28,72.26-48.72,27.99-11.84,57.75-17.84,88.45-17.84v-45.46c-45.31,0-88.04,11.05-125.64,30.61,13.84-20.05,26.11-41.27,36.63-63.48,7.91-16.68,14.82-33.91,20.68-51.62,5.19-15.69,9.54-31.76,13.01-48.16,3.24-15.29,5.71-30.86,7.36-46.66,1.65-15.76,2.5-31.76,2.5-47.96h0c0-16.2-.85-32.2-2.5-47.96-1.65-15.81-4.13-31.37-7.36-46.66-3.47-16.4-7.82-32.47-13.01-48.16-5.86-17.71-12.77-34.95-20.68-51.62-10.52-22.21-22.79-43.43-36.63-63.48,37.6,19.56,80.34,30.61,125.64,30.61v-45.46c-30.71,0-60.46-6-88.45-17.84-27.06-11.44-51.37-27.83-72.26-48.72Z"/>
  <path class="cls-1" d="M1590.91,0h-45.46c0,12.14-4.73,23.56-13.31,32.14-8.59,8.58-20,13.31-32.14,13.31v45.46c50.21,0,90.91-40.7,90.91-90.91Z"/>
  <path class="cls-1" d="M1681.82,0h-45.45c0,18.43-3.6,36.28-10.7,53.06-6.87,16.24-16.7,30.83-29.24,43.36-12.53,12.54-27.12,22.38-43.36,29.24-16.78,7.1-34.64,10.7-53.06,10.7v45.45C1600.42,181.82,1681.82,100.42,1681.82,0Z"/>
  <path class="cls-1" d="M1742.12,125.64C1761.68,88.04,1772.73,45.31,1772.73,0h-45.46c0,30.71-6,60.46-17.84,88.45-11.44,27.06-27.83,51.37-48.72,72.26-20.89,20.89-45.2,37.28-72.26,48.72-27.99,11.84-57.75,17.84-88.45,17.84v45.46c45.31,0,88.04-11.05,125.64-30.61,49.79-25.88,90.59-66.68,116.48-116.48Z"/>
  <path class="cls-1" d="M1622.29,342.56h0c23.71-8.47,46.29-19.33,67.44-32.29,49.07-30.07,90.46-71.46,120.53-120.53,12.96-21.15,23.83-43.73,32.29-67.44h0c6.22-17.42,11.14-35.44,14.66-53.96,4.21-22.13,6.41-44.97,6.41-68.33h-45.45c0,30.47-4.23,60.27-12.59,89.01h0c-3.44,11.81-7.57,23.42-12.4,34.83-4.81,11.38-10.32,22.52-16.46,33.3h0c-4.02,7.08-8.32,13.99-12.87,20.73-11.39,16.86-24.47,32.71-38.87,47.12-14.41,14.41-30.26,27.49-47.12,38.87-6.74,4.55-13.65,8.84-20.72,12.87h0c-10.78,6.14-21.92,11.65-33.3,16.46-11.41,4.82-23.03,8.96-34.83,12.4h0c-28.74,8.36-58.54,12.59-89.01,12.59v45.45c23.36,0,46.2-2.2,68.33-6.41,18.52-3.52,36.54-8.44,53.95-14.66Z"/>
  <path class="cls-1" d="M1954.54,1500h0c0-12.14,4.73-23.56,13.31-32.14,8.59-8.58,20-13.31,32.14-13.31v-45.46c-50.21,0-90.91,40.7-90.91,90.91s40.7,90.91,90.91,90.91v-45.46c-12.14,0-23.56-4.73-32.15-13.31-8.58-8.59-13.31-20-13.31-32.14Z"/>
  <path class="cls-1" d="M1500,1818.18c-30.47,0-60.27-4.23-89.01-12.59h0c-11.8-3.44-23.41-7.57-34.83-12.4-11.38-4.81-22.52-10.32-33.3-16.46h0c-7.07-4.03-13.99-8.32-20.72-12.87-16.86-11.39-32.71-24.47-47.12-38.87-14.41-14.41-27.49-30.26-38.87-47.12-4.55-6.74-8.84-13.65-12.87-20.72h0c-6.13-10.79-11.64-21.93-16.46-33.31-4.82-11.41-8.96-23.03-12.4-34.83h0c-8.36-28.74-12.59-58.55-12.59-89.01s4.23-60.27,12.59-89.01h0c3.44-11.81,7.57-23.42,12.4-34.83,4.81-11.38,10.32-22.52,16.46-33.3h0c4.02-7.08,8.32-13.99,12.87-20.73,11.39-16.86,24.47-32.71,38.87-47.12,14.41-14.41,30.26-27.49,47.12-38.87,6.74-4.55,13.65-8.84,20.72-12.87h0c10.78-6.14,21.92-11.65,33.3-16.46,11.41-4.82,23.03-8.96,34.83-12.4h0c28.74-8.36,58.54-12.59,89.01-12.59v-45.45c-23.36,0-46.2,2.2-68.33,6.41-18.52,3.52-36.54,8.44-53.95,14.66h0c-23.71,8.47-46.29,19.33-67.44,32.29-49.07,30.07-90.46,71.46-120.53,120.53-12.96,21.15-23.83,43.73-32.29,67.44h0c-6.22,17.42-11.14,35.44-14.66,53.96-4.21,22.13-6.41,44.97-6.41,68.33s2.2,46.2,6.41,68.33c3.52,18.52,8.44,36.54,14.66,53.95h0c8.47,23.72,19.33,46.3,32.29,67.45,30.07,49.07,71.46,90.46,120.53,120.53,21.15,12.96,43.73,23.83,67.44,32.29h0c17.41,6.22,35.43,11.14,53.95,14.66,22.13,4.21,44.97,6.41,68.33,6.41,18.43,0,36.28,3.6,53.06,10.7,16.24,6.87,30.83,16.7,43.36,29.24,12.54,12.53,22.38,27.12,29.24,43.36,7.1,16.78,10.7,34.64,10.7,53.06h45.45c0-100.42-81.4-181.82-181.82-181.82Z"/>
  <path class="cls-1" d="M1903.58,1596.42c-12.54-12.53-22.38-27.12-29.24-43.36-7.1-16.78-10.7-34.64-10.7-53.06s3.6-36.28,10.7-53.06c6.87-16.24,16.7-30.83,29.24-43.36,12.53-12.54,27.12-22.38,43.36-29.24,16.78-7.1,34.64-10.7,53.06-10.7v-45.45c-100.42,0-181.82,81.4-181.82,181.82s81.4,181.82,181.82,181.82v-45.45c-18.43,0-36.28-3.6-53.06-10.7-16.24-6.87-30.83-16.7-43.36-29.24Z"/>
  <path class="cls-1" d="M1625.64,1757.88c-37.6-19.56-80.34-30.61-125.64-30.61-30.71,0-60.46-6-88.45-17.84-27.06-11.44-51.37-27.83-72.26-48.72-20.89-20.89-37.28-45.2-48.72-72.26-11.84-27.99-17.84-57.75-17.84-88.45s6-60.46,17.84-88.45c11.44-27.06,27.83-51.37,48.72-72.26,20.89-20.89,45.2-37.28,72.26-48.72,27.99-11.84,57.75-17.84,88.45-17.84v-45.46c-45.31,0-88.04,11.05-125.64,30.61-49.79,25.88-90.59,66.68-116.48,116.48-19.56,37.6-30.61,80.34-30.61,125.64s11.05,88.04,30.61,125.64c25.88,49.79,66.68,90.59,116.48,116.48,37.6,19.56,80.34,30.61,125.64,30.61,30.71,0,60.46,6,88.45,17.84,27.06,11.44,51.37,27.83,72.26,48.72,20.89,20.89,37.28,45.2,48.72,72.26,11.84,27.99,17.84,57.75,17.84,88.45h45.46c0-45.31-11.05-88.04-30.61-125.64-25.88-49.79-66.68-90.59-116.48-116.48Z"/>
  <path class="cls-1" d="M1842.56,1877.71h0c-8.47-23.72-19.33-46.3-32.29-67.45-30.07-49.07-71.46-90.46-120.53-120.53-21.15-12.96-43.73-23.83-67.44-32.29h0c-17.41-6.22-35.43-11.14-53.95-14.66-22.13-4.21-44.97-6.41-68.33-6.41-18.43,0-36.28-3.6-53.06-10.7-16.24-6.87-30.83-16.7-43.36-29.24-12.54-12.53-22.38-27.12-29.24-43.36-7.1-16.78-10.7-34.64-10.7-53.06s3.6-36.28,10.7-53.06c6.87-16.24,16.7-30.83,29.24-43.36,12.53-12.54,27.12-22.38,43.36-29.24,16.78-7.1,34.64-10.7,53.06-10.7v-45.45c-100.42,0-181.82,81.4-181.82,181.82s81.4,181.82,181.82,181.82c30.47,0,60.27,4.23,89.01,12.59h0c11.8,3.44,23.41,7.57,34.83,12.4,11.38,4.81,22.52,10.32,33.3,16.46h0c7.07,4.03,13.99,8.32,20.72,12.87,16.86,11.39,32.71,24.47,47.12,38.87,14.41,14.41,27.49,30.26,38.87,47.12,4.55,6.74,8.84,13.65,12.87,20.72h0c6.13,10.79,11.64,21.93,16.46,33.31,4.82,11.41,8.96,23.03,12.4,34.83h0c8.36,28.74,12.59,58.55,12.59,89.01h45.45c0-23.36-2.2-46.2-6.41-68.33-3.52-18.52-8.44-36.54-14.66-53.95Z"/>
  <path class="cls-1" d="M1000,1909.09v45.46c12.14,0,23.56,4.73,32.15,13.31,8.58,8.59,13.31,20,13.31,32.14h45.46c0-50.21-40.7-90.91-90.91-90.91Z"/>
  <path class="cls-1" d="M1500,1909.09c-18.53,0-37.05-1.24-55.32-3.71-9.12-1.23-18.2-2.76-27.18-4.6-7.32-1.49-14.59-3.19-21.83-5.1-18.09-4.76-35.88-10.77-53.12-17.97-.6-.24-1.19-.5-1.79-.75-22.23-9.41-43.75-20.86-64.04-34.11-1.82-1.18-3.63-2.38-5.43-3.6-21.67-14.64-42.05-31.46-60.58-49.98-18.52-18.52-35.34-38.9-49.98-60.58-1.22-1.8-2.42-3.61-3.6-5.43-13.24-20.29-24.7-41.81-34.11-64.04-.25-.59-.5-1.19-.75-1.79-7.2-17.24-13.21-35.02-17.97-53.12-1.9-7.23-3.61-14.51-5.1-21.83-1.84-8.98-3.37-18.05-4.6-27.18-2.47-18.27-3.71-36.79-3.71-55.32s1.24-37.05,3.71-55.32c1.23-9.12,2.76-18.2,4.6-27.18,1.49-7.32,3.19-14.59,5.1-21.83,4.76-18.09,10.77-35.88,17.97-53.12.24-.6.5-1.19.75-1.79,9.41-22.23,20.86-43.75,34.11-64.04,1.18-1.82,2.38-3.63,3.6-5.43,14.64-21.67,31.46-42.05,49.98-60.58,18.52-18.52,38.9-35.34,60.58-49.98,1.8-1.22,3.61-2.42,5.43-3.6,20.29-13.25,41.81-24.7,64.04-34.11.59-.25,1.19-.5,1.79-.75,17.24-7.2,35.02-13.21,53.12-17.97,7.23-1.9,14.51-3.61,21.83-5.1,8.98-1.84,18.05-3.37,27.18-4.6,18.27-2.47,36.79-3.71,55.32-3.71v-45.46c-16.2,0-32.2.85-47.96,2.5-15.81,1.65-31.37,4.13-46.66,7.36-16.4,3.47-32.47,7.82-48.16,13.01-17.71,5.86-34.95,12.77-51.62,20.68-22.21,10.52-43.43,22.79-63.48,36.63,19.56-37.6,30.61-80.34,30.61-125.64s-11.05-88.04-30.61-125.64c20.05,13.84,41.27,26.11,63.48,36.63,16.68,7.91,33.91,14.82,51.62,20.68,15.69,5.19,31.76,9.54,48.16,13.01,15.29,3.24,30.86,5.71,46.66,7.36,15.76,1.65,31.76,2.5,47.96,2.5,12.14,0,23.56,4.73,32.15,13.31,8.58,8.59,13.31,20,13.31,32.15h0c0,12.14-4.73,23.56-13.31,32.15-8.59,8.58-20,13.31-32.14,13.31v45.46c50.21,0,90.91-40.7,90.91-90.91s-40.7-90.91-90.91-90.91c-18.53,0-37.05-1.24-55.32-3.71-9.12-1.23-18.2-2.76-27.18-4.6-7.32-1.49-14.59-3.19-21.83-5.1-18.09-4.76-35.88-10.77-53.12-17.97-.6-.24-1.19-.5-1.79-.75-22.23-9.41-43.75-20.86-64.04-34.11-1.82-1.18-3.63-2.38-5.43-3.6-21.67-14.64-42.05-31.46-60.58-49.98-18.52-18.52-35.34-38.9-49.98-60.58-1.22-1.8-2.42-3.61-3.6-5.43-13.24-20.29-24.7-41.81-34.11-64.04-.25-.59-.5-1.19-.75-1.79-7.2-17.24-13.21-35.02-17.97-53.12-1.9-7.23-3.61-14.51-5.1-21.83-1.84-8.98-3.37-18.05-4.6-27.18-2.47-18.27-3.71-36.79-3.71-55.32s1.24-37.05,3.71-55.32c1.23-9.12,2.76-18.2,4.6-27.18,1.49-7.32,3.19-14.59,5.1-21.83,4.76-18.09,10.77-35.88,17.97-53.12.24-.6.5-1.19.75-1.79,9.41-22.23,20.86-43.75,34.11-64.04,1.18-1.82,2.38-3.63,3.6-5.43,14.64-21.67,31.46-42.05,49.98-60.58,18.52-18.52,38.9-35.34,60.58-49.98,1.8-1.22,3.61-2.42,5.43-3.6,20.29-13.25,41.81-24.7,64.04-34.11.59-.25,1.19-.5,1.79-.75,17.24-7.2,35.02-13.21,53.12-17.97,7.23-1.9,14.51-3.61,21.83-5.1,8.98-1.84,18.05-3.37,27.18-4.6,18.27-2.47,36.79-3.71,55.32-3.71v-45.46c-16.2,0-32.2.85-47.96,2.5-15.81,1.65-31.37,4.13-46.66,7.36-16.4,3.47-32.47,7.82-48.16,13.01-17.71,5.86-34.95,12.77-51.62,20.68-22.21,10.52-43.43,22.79-63.48,36.63C1261.68,88.04,1272.73,45.31,1272.73,0h-45.46c0,30.71-6,60.46-17.84,88.45-11.44,27.06-27.83,51.37-48.72,72.26-20.89,20.89-45.2,37.28-72.26,48.72-27.99,11.84-57.75,17.84-88.45,17.84s-60.46-6-88.45-17.84c-27.06-11.44-51.37-27.83-72.26-48.72-20.89-20.89-37.28-45.2-48.72-72.26C778.73,60.46,772.73,30.71,772.73,0h-45.46c0,45.31,11.05,88.04,30.61,125.64-20.05-13.84-41.27-26.11-63.48-36.63-16.68-7.91-33.91-14.82-51.62-20.68-15.69-5.19-31.76-9.54-48.16-13.01-15.29-3.24-30.86-5.71-46.66-7.36-15.76-1.65-31.76-2.5-47.96-2.5-12.14,0-23.56-4.73-32.14-13.31C459.27,23.56,454.54,12.14,454.54,0h-45.46c0,50.21,40.7,90.91,90.91,90.91,18.53,0,37.05,1.24,55.32,3.71,9.12,1.23,18.2,2.76,27.18,4.6,7.32,1.49,14.59,3.19,21.83,5.1,18.09,4.76,35.88,10.77,53.12,17.97.6.24,1.19.5,1.79.75,22.23,9.41,43.75,20.86,64.04,34.11,1.82,1.18,3.63,2.38,5.43,3.6,21.67,14.64,42.05,31.46,60.58,49.98,18.52,18.52,35.34,38.9,49.98,60.58,1.22,1.8,2.42,3.61,3.6,5.43,13.24,20.29,24.7,41.81,34.11,64.04.25.59.5,1.19.75,1.79,7.2,17.24,13.21,35.02,17.97,53.12,1.9,7.23,3.61,14.51,5.1,21.83,1.84,8.98,3.37,18.05,4.6,27.18,2.47,18.27,3.71,36.79,3.71,55.32s-1.24,37.05-3.71,55.32c-1.23,9.12-2.76,18.2-4.6,27.18-1.49,7.32-3.19,14.59-5.1,21.83-4.76,18.09-10.77,35.88-17.97,53.12-.24.6-.5,1.19-.75,1.79-9.41,22.23-20.86,43.75-34.11,64.04-1.18,1.82-2.38,3.63-3.6,5.43-14.64,21.67-31.46,42.05-49.98,60.58-18.52,18.52-38.9,35.34-60.58,49.98-1.8,1.22-3.61,2.42-5.43,3.6-20.29,13.24-41.81,24.7-64.04,34.11-.59.25-1.19.5-1.79.75-17.24,7.2-35.02,13.21-53.12,17.97-7.23,1.9-14.51,3.61-21.83,5.1-8.98,1.84-18.05,3.37-27.18,4.6-18.27,2.47-36.79,3.71-55.32,3.71-50.21,0-90.91,40.7-90.91,90.91h0c0,50.21,40.7,90.91,90.91,90.91,18.53,0,37.05,1.24,55.32,3.71,9.12,1.23,18.2,2.76,27.18,4.6,7.32,1.49,14.59,3.19,21.83,5.1,18.09,4.76,35.88,10.77,53.12,17.97.6.24,1.19.5,1.79.75,22.23,9.41,43.75,20.86,64.04,34.11,1.82,1.18,3.63,2.38,5.43,3.6,21.67,14.64,42.05,31.46,60.58,49.98,18.52,18.52,35.34,38.9,49.98,60.58,1.22,1.8,2.42,3.61,3.6,5.43,13.25,20.29,24.7,41.81,34.11,64.04.25.59.5,1.19.75,1.79,7.2,17.24,13.21,35.02,17.97,53.12,1.9,7.23,3.61,14.51,5.1,21.83,1.84,8.98,3.37,18.05,4.6,27.18,2.47,18.27,3.71,36.79,3.71,55.32s-1.24,37.05-3.71,55.32c-1.23,9.12-2.76,18.2-4.6,27.18-1.49,7.32-3.19,14.59-5.1,21.83-4.76,18.09-10.77,35.88-17.97,53.12-.24.6-.5,1.19-.75,1.79-9.41,22.23-20.86,43.75-34.11,64.04-1.18,1.82-2.38,3.63-3.6,5.43-14.64,21.67-31.46,42.05-49.98,60.58-18.52,18.52-38.9,35.34-60.58,49.98-1.8,1.22-3.61,2.42-5.43,3.6-20.29,13.25-41.81,24.7-64.04,34.11-.59.25-1.19.5-1.79.75-17.24,7.2-35.02,13.21-53.12,17.97-7.23,1.9-14.51,3.61-21.83,5.1-8.98,1.84-18.05,3.37-27.18,4.6-18.27,2.47-36.79,3.71-55.32,3.71v45.46c16.2,0,32.2-.85,47.96-2.5,15.81-1.65,31.37-4.13,46.66-7.36,16.4-3.47,32.47-7.82,48.16-13.01,17.71-5.86,34.95-12.77,51.62-20.68,22.21-10.52,43.43-22.79,63.48-36.63-19.56,37.6-30.61,80.34-30.61,125.64h45.46c0-30.71,6-60.46,17.84-88.45,11.44-27.06,27.83-51.37,48.72-72.26,20.89-20.89,45.2-37.28,72.26-48.72,27.99-11.84,57.75-17.84,88.45-17.84v-45.46c-45.31,0-88.04,11.05-125.64,30.61,13.84-20.05,26.11-41.27,36.63-63.48,7.91-16.68,14.82-33.91,20.68-51.62,5.19-15.69,9.54-31.76,13.01-48.16,3.24-15.29,5.71-30.86,7.36-46.66,1.65-15.76,2.5-31.76,2.5-47.96h0c0-16.2-.85-32.2-2.5-47.96-1.65-15.81-4.13-31.37-7.36-46.66-3.47-16.4-7.82-32.47-13.01-48.16-5.86-17.71-12.77-34.95-20.68-51.62-10.52-22.21-22.79-43.43-36.63-63.48,37.6,19.56,80.34,30.61,125.64,30.61v-45.46c-30.71,0-60.46-6-88.45-17.84-27.06-11.44-51.37-27.83-72.26-48.72-20.89-20.89-37.28-45.2-48.72-72.26-11.84-27.99-17.84-57.75-17.84-88.45s6-60.46,17.84-88.45c11.44-27.06,27.83-51.37,48.72-72.26,20.89-20.89,45.2-37.28,72.26-48.72,27.99-11.84,57.75-17.84,88.45-17.84s60.46,6,88.45,17.84c27.06,11.44,51.37,27.83,72.26,48.72,20.89,20.89,37.28,45.2,48.72,72.26,11.84,27.99,17.84,57.75,17.84,88.45s-6,60.46-17.84,88.45c-11.44,27.06-27.83,51.37-48.72,72.26-20.89,20.89-45.2,37.28-72.26,48.72-27.99,11.84-57.75,17.84-88.45,17.84v45.46c45.31,0,88.04-11.05,125.64-30.61-13.84,20.05-26.11,41.27-36.63,63.48-7.91,16.68-14.82,33.91-20.68,51.62-5.19,15.69-9.54,31.76-13.01,48.16-3.24,15.29-5.71,30.86-7.36,46.66-1.65,15.76-2.5,31.76-2.5,47.96h0c0,16.2.85,32.2,2.5,47.96,1.65,15.81,4.13,31.37,7.36,46.66,3.47,16.4,7.82,32.47,13.01,48.16,5.86,17.71,12.77,34.95,20.68,51.62,10.52,22.21,22.79,43.43,36.63,63.48-37.6-19.56-80.34-30.61-125.64-30.61v45.46c30.71,0,60.46,6,88.45,17.84,27.06,11.44,51.37,27.83,72.26,48.72,20.89,20.89,37.28,45.2,48.72,72.26,11.84,27.99,17.84,57.75,17.84,88.45h45.46c0-45.31-11.05-88.04-30.61-125.64,20.05,13.84,41.27,26.11,63.48,36.63,16.68,7.91,33.91,14.82,51.62,20.68,15.69,5.19,31.76,9.54,48.16,13.01,15.29,3.24,30.86,5.71,46.66,7.36,15.76,1.65,31.76,2.5,47.96,2.5,12.14,0,23.56,4.73,32.15,13.31,8.58,8.59,13.31,20,13.31,32.14h45.46c0-50.21-40.7-90.91-90.91-90.91ZM757.88,1125.64c-20.05-13.84-41.27-26.11-63.48-36.63-16.68-7.91-33.91-14.82-51.62-20.68-15.69-5.19-31.76-9.54-48.16-13.01-15.29-3.24-30.86-5.71-46.66-7.36-15.76-1.65-31.76-2.5-47.96-2.5-12.14,0-23.56-4.73-32.15-13.31-8.58-8.59-13.31-20-13.31-32.14s4.73-23.56,13.31-32.15c8.59-8.58,20-13.31,32.14-13.31,16.2,0,32.2-.85,47.96-2.5,15.81-1.65,31.37-4.13,46.66-7.36,16.4-3.47,32.47-7.82,48.16-13.01,17.71-5.86,34.95-12.77,51.62-20.68,22.21-10.52,43.43-22.79,63.48-36.63-19.56,37.6-30.61,80.34-30.61,125.64h0c0,45.31,11.05,88.04,30.61,125.64ZM1000,727.27c-45.31,0-88.04,11.05-125.64,30.61,13.84-20.05,26.11-41.27,36.63-63.48,7.91-16.68,14.82-33.91,20.68-51.62,5.19-15.69,9.54-31.76,13.01-48.16,3.24-15.29,5.71-30.86,7.36-46.66,1.65-15.76,2.5-31.76,2.5-47.96h0c0-16.2-.85-32.2-2.5-47.96-1.65-15.81-4.13-31.37-7.36-46.66-3.47-16.4-7.82-32.47-13.01-48.16-5.86-17.71-12.77-34.95-20.68-51.62-10.52-22.21-22.79-43.43-36.63-63.48,37.6,19.56,80.34,30.61,125.64,30.61s88.04-11.05,125.64-30.61c-13.84,20.05-26.11,41.27-36.63,63.48-7.91,16.68-14.82,33.91-20.68,51.62-5.19,15.69-9.54,31.76-13.01,48.16-3.24,15.29-5.71,30.86-7.36,46.66-1.65,15.76-2.5,31.76-2.5,47.96h0c0,16.2.85,32.2,2.5,47.96,1.65,15.81,4.13,31.37,7.36,46.66,3.47,16.4,7.82,32.47,13.01,48.16,5.86,17.71,12.77,34.95,20.68,51.62,10.52,22.21,22.79,43.43,36.63,63.48-37.6-19.56-80.34-30.61-125.64-30.61Z"/>
  <path class="cls-1" d="M1000,1818.18v45.45c18.43,0,36.28,3.6,53.06,10.7,16.24,6.87,30.83,16.7,43.36,29.24,12.54,12.53,22.38,27.12,29.24,43.36,7.1,16.78,10.7,34.64,10.7,53.06h45.45c0-100.42-81.4-181.82-181.82-181.82Z"/>
  <path class="cls-1" d="M90.91,1500c0-50.21-40.7-90.91-90.91-90.91v45.46c12.14,0,23.56,4.73,32.14,13.31,8.58,8.59,13.31,20,13.31,32.14s-4.73,23.56-13.31,32.14c-8.59,8.58-20,13.31-32.14,13.31v45.46c50.21,0,90.91-40.7,90.91-90.91Z"/>
  <path class="cls-1" d="M181.82,1500c0-100.42-81.4-181.82-181.82-181.82v45.45c18.43,0,36.28,3.6,53.06,10.7,16.24,6.87,30.83,16.7,43.36,29.24,12.54,12.53,22.38,27.12,29.24,43.36,7.1,16.78,10.7,34.64,10.7,53.06s-3.6,36.28-10.7,53.06c-6.87,16.24-16.7,30.83-29.24,43.36-12.53,12.54-27.12,22.38-43.36,29.24-16.78,7.1-34.64,10.7-53.06,10.7v45.45c100.42,0,181.82-81.4,181.82-181.82Z"/>
  <path class="cls-1" d="M954.54,1000c0-12.14,4.73-23.56,13.31-32.15,8.59-8.58,20-13.31,32.15-13.31s23.56,4.73,32.15,13.31c8.58,8.59,13.31,20,13.31,32.14h0c0,12.14-4.73,23.56-13.31,32.15-8.59,8.58-20,13.31-32.15,13.31v45.46c50.21,0,90.91-40.7,90.91-90.91s-40.7-90.91-90.91-90.91-90.91,40.7-90.91,90.91h0c0,50.21,40.7,90.91,90.91,90.91v-45.46c-12.14,0-23.56-4.73-32.15-13.31-8.58-8.59-13.31-20-13.31-32.14Z"/>
  <path class="cls-1" d="M903.58,1096.42c-12.54-12.53-22.38-27.12-29.24-43.36-7.1-16.78-10.7-34.64-10.7-53.06h0c0-18.43,3.6-36.28,10.7-53.06,6.87-16.24,16.7-30.83,29.24-43.36,12.53-12.54,27.12-22.38,43.36-29.24,16.78-7.1,34.64-10.7,53.06-10.7h0c18.43,0,36.28,3.6,53.06,10.7,16.24,6.87,30.83,16.7,43.36,29.24,12.54,12.53,22.38,27.12,29.24,43.36,7.1,16.78,10.7,34.64,10.7,53.06s-3.6,36.28-10.7,53.06c-6.87,16.24-16.7,30.83-29.24,43.36-12.53,12.54-27.12,22.38-43.36,29.24-16.78,7.1-34.64,10.7-53.06,10.7v45.45c100.42,0,181.82-81.4,181.82-181.82s-81.4-181.82-181.82-181.82-181.82,81.4-181.82,181.82h0c0,100.42,81.4,181.82,181.82,181.82v-45.45c-18.43,0-36.28-3.6-53.06-10.7-16.24-6.87-30.83-16.7-43.36-29.24Z"/>
  <path class="cls-1" d="M909.09,2000h45.46c0-12.14,4.73-23.56,13.31-32.14,8.59-8.58,20-13.31,32.15-13.31v-45.46c-50.21,0-90.91,40.7-90.91,90.91Z"/>
  <path class="cls-1" d="M818.18,2000h45.45c0-18.43,3.6-36.28,10.7-53.06,6.87-16.24,16.7-30.83,29.24-43.36,12.53-12.54,27.12-22.38,43.36-29.24,16.78-7.1,34.64-10.7,53.06-10.7v-45.45c-100.42,0-181.82,81.4-181.82,181.82Z"/>
  <path class="cls-1" d="M405.38,1555.32c-16.4,3.47-32.47,7.82-48.16,13.01-17.71,5.86-34.95,12.77-51.62,20.68-22.21,10.52-43.43,22.79-63.48,36.63,19.56-37.6,30.61-80.34,30.61-125.64s-11.05-88.04-30.61-125.64c20.05,13.84,41.27,26.11,63.48,36.63,16.68,7.91,33.91,14.82,51.62,20.68,15.69,5.19,31.76,9.54,48.16,13.01,15.29,3.24,30.86,5.71,46.66,7.36,15.76,1.65,31.76,2.5,47.96,2.5,12.14,0,23.56,4.73,32.14,13.31,8.58,8.59,13.31,20,13.31,32.14s-4.73,23.56-13.31,32.14c-8.59,8.58-20,13.31-32.14,13.31v45.46c50.21,0,90.91-40.7,90.91-90.91s-40.7-90.91-90.91-90.91c-18.53,0-37.05-1.24-55.32-3.71-9.12-1.23-18.2-2.76-27.18-4.6-7.32-1.49-14.59-3.19-21.83-5.1-18.09-4.76-35.88-10.77-53.12-17.97-.6-.24-1.19-.5-1.79-.75-22.23-9.41-43.75-20.86-64.04-34.11-1.82-1.18-3.63-2.38-5.43-3.6-21.67-14.64-42.05-31.46-60.58-49.98-18.52-18.52-35.34-38.9-49.98-60.58-1.22-1.8-2.42-3.61-3.6-5.43-13.24-20.29-24.7-41.81-34.11-64.04-.25-.59-.5-1.19-.75-1.79-7.2-17.24-13.21-35.02-17.97-53.12-1.9-7.23-3.61-14.51-5.1-21.83-1.84-8.98-3.37-18.05-4.6-27.18-2.47-18.27-3.71-36.79-3.71-55.32h0c0-18.53,1.24-37.05,3.71-55.32,1.23-9.12,2.76-18.2,4.6-27.18,1.49-7.32,3.19-14.59,5.1-21.83,4.76-18.09,10.77-35.88,17.97-53.12.24-.6.5-1.19.75-1.79,9.41-22.23,20.86-43.75,34.11-64.04,1.18-1.82,2.38-3.63,3.6-5.43,14.64-21.67,31.46-42.05,49.98-60.58,18.52-18.52,38.9-35.34,60.58-49.98,1.8-1.22,3.61-2.42,5.43-3.6,20.29-13.25,41.81-24.7,64.04-34.11.59-.25,1.19-.5,1.79-.75,17.24-7.2,35.02-13.21,53.12-17.97,7.23-1.9,14.51-3.61,21.83-5.1,8.98-1.84,18.05-3.37,27.18-4.6,18.27-2.47,36.79-3.71,55.32-3.71,50.21,0,90.91-40.7,90.91-90.91s-40.7-90.91-90.91-90.91c-18.53,0-37.05-1.24-55.32-3.71-9.12-1.23-18.2-2.76-27.18-4.6-7.32-1.49-14.59-3.19-21.83-5.1-18.09-4.76-35.88-10.77-53.12-17.97-.6-.24-1.19-.5-1.79-.75-22.23-9.41-43.75-20.86-64.04-34.11-1.82-1.18-3.63-2.38-5.43-3.6-21.67-14.64-42.05-31.46-60.58-49.98-18.52-18.52-35.34-38.9-49.98-60.58-1.22-1.8-2.42-3.61-3.6-5.43-13.24-20.29-24.7-41.81-34.11-64.04-.25-.59-.5-1.19-.75-1.79-7.2-17.24-13.21-35.02-17.97-53.12-1.9-7.23-3.61-14.51-5.1-21.83-1.84-8.98-3.37-18.05-4.6-27.18C92.15,37.05,90.91,18.53,90.91,0h-45.46c0,16.2.85,32.2,2.5,47.96,1.65,15.81,4.13,31.37,7.36,46.66,3.47,16.4,7.82,32.47,13.01,48.16,5.86,17.71,12.77,34.95,20.68,51.62,10.52,22.21,22.79,43.43,36.63,63.48-37.6-19.56-80.34-30.61-125.64-30.61v45.46c30.71,0,60.46,6,88.45,17.84,27.06,11.44,51.37,27.83,72.26,48.72,20.89,20.89,37.28,45.2,48.72,72.26,11.84,27.99,17.84,57.75,17.84,88.45h0c0,30.71-6,60.46-17.84,88.45-11.44,27.06-27.83,51.37-48.72,72.26-20.89,20.89-45.2,37.28-72.26,48.72C60.46,721.27,30.71,727.27,0,727.27v45.46c45.31,0,88.04-11.05,125.64-30.61-13.84,20.05-26.11,41.27-36.63,63.48-7.91,16.68-14.82,33.91-20.68,51.62-5.19,15.69-9.54,31.76-13.01,48.16-3.24,15.29-5.71,30.86-7.36,46.66-1.65,15.76-2.5,31.76-2.5,47.96h0c0,16.2.85,32.2,2.5,47.96,1.65,15.81,4.13,31.37,7.36,46.66,3.47,16.4,7.82,32.47,13.01,48.16,5.86,17.71,12.77,34.95,20.68,51.62,10.52,22.21,22.79,43.43,36.63,63.48-37.6-19.56-80.34-30.61-125.64-30.61v45.46c30.71,0,60.46,6,88.45,17.84,27.06,11.44,51.37,27.83,72.26,48.72,20.89,20.89,37.28,45.2,48.72,72.26,11.84,27.99,17.84,57.75,17.84,88.45s-6,60.46-17.84,88.45c-11.44,27.06-27.83,51.37-48.72,72.26-20.89,20.89-45.2,37.28-72.26,48.72-27.99,11.84-57.75,17.84-88.45,17.84v45.46c45.31,0,88.04-11.05,125.64-30.61-13.84,20.05-26.11,41.27-36.63,63.48-7.91,16.68-14.82,33.91-20.68,51.62-5.19,15.69-9.54,31.76-13.01,48.16-3.24,15.29-5.71,30.86-7.36,46.66-1.65,15.76-2.5,31.76-2.5,47.96h45.46c0-18.53,1.24-37.05,3.71-55.32,1.23-9.12,2.76-18.2,4.6-27.18,1.49-7.32,3.19-14.59,5.1-21.83,4.76-18.09,10.77-35.88,17.97-53.12.24-.6.5-1.19.75-1.79,9.41-22.23,20.86-43.75,34.11-64.04,1.18-1.82,2.38-3.63,3.6-5.43,14.64-21.67,31.46-42.05,49.98-60.58,18.52-18.52,38.9-35.34,60.58-49.98,1.8-1.22,3.61-2.42,5.43-3.6,20.29-13.24,41.81-24.7,64.04-34.11.59-.25,1.19-.5,1.79-.75,17.24-7.2,35.02-13.21,53.12-17.97,7.23-1.9,14.51-3.61,21.83-5.1,8.98-1.84,18.05-3.37,27.18-4.6,18.27-2.47,36.79-3.71,55.32-3.71v-45.46c-16.2,0-32.2.85-47.96,2.5-15.81,1.65-31.37,4.13-46.66,7.36ZM242.12,374.36c20.05,13.84,41.27,26.11,63.48,36.63,16.68,7.91,33.91,14.82,51.62,20.68,15.69,5.19,31.76,9.54,48.16,13.01,15.29,3.24,30.86,5.71,46.66,7.36,15.76,1.65,31.76,2.5,47.96,2.5,12.14,0,23.56,4.73,32.15,13.31,8.58,8.59,13.31,20,13.31,32.14s-4.73,23.56-13.31,32.15c-8.59,8.58-20,13.31-32.15,13.31-16.2,0-32.2.85-47.96,2.5-15.81,1.65-31.37,4.13-46.66,7.36-16.4,3.47-32.47,7.82-48.16,13.01-17.71,5.86-34.95,12.77-51.62,20.68-22.21,10.52-43.43,22.79-63.48,36.63,19.56-37.6,30.61-80.34,30.61-125.64h0c0-45.31-11.05-88.04-30.61-125.64Z"/>
  <path class="cls-1" d="M409.09,2000h45.46c0-12.14,4.73-23.56,13.31-32.14,8.59-8.58,20-13.31,32.14-13.31v-45.46c-50.21,0-90.91,40.7-90.91,90.91Z"/>
  <path class="cls-1" d="M318.18,2000h45.45c0-18.43,3.6-36.28,10.7-53.06,6.87-16.24,16.7-30.83,29.24-43.36,12.53-12.54,27.12-22.38,43.36-29.24,16.78-7.1,34.64-10.7,53.06-10.7v-45.45c-100.42,0-181.82,81.4-181.82,181.82Z"/>
  <path class="cls-1" d="M257.88,1874.36c-19.56,37.6-30.61,80.34-30.61,125.64h45.46c0-30.71,6-60.46,17.84-88.45,11.44-27.06,27.83-51.37,48.72-72.26,20.89-20.89,45.2-37.28,72.26-48.72,27.99-11.84,57.75-17.84,88.45-17.84v-45.46c-45.31,0-88.04,11.05-125.64,30.61-49.79,25.88-90.59,66.68-116.48,116.48Z"/>
  <path class="cls-1" d="M377.71,1657.44h0c-23.71,8.47-46.29,19.33-67.44,32.29-49.07,30.07-90.46,71.46-120.53,120.53-12.96,21.15-23.83,43.73-32.29,67.44h0c-6.22,17.42-11.14,35.44-14.66,53.96-4.21,22.13-6.41,44.97-6.41,68.33h45.45c0-30.47,4.23-60.27,12.59-89.01h0c3.44-11.81,7.57-23.42,12.4-34.83,4.81-11.38,10.32-22.52,16.46-33.3h0c4.02-7.08,8.32-13.99,12.87-20.73,11.39-16.86,24.47-32.71,38.87-47.12s30.26-27.49,47.12-38.87c6.74-4.55,13.65-8.84,20.72-12.87h0c10.78-6.14,21.92-11.65,33.3-16.46,11.41-4.82,23.03-8.96,34.83-12.4h0c28.74-8.36,58.54-12.59,89.01-12.59v-45.45c-23.36,0-46.2,2.2-68.33,6.41-18.52,3.52-36.54,8.44-53.95,14.66Z"/>
</svg>