<svg xmlns="http://www.w3.org/2000/svg" viewBox="0 0 2000 2000">
  <defs>
    <style>
      .cls-1, .cls-2, .cls-3, .cls-4, .cls-5, .cls-6, .cls-7, .cls-8, .cls-9 {
        stroke-miterlimit: 10;
        stroke-width: 10px;
      }

      .cls-1, .cls-3 {
        stroke: #13283e;
      }

      .cls-1, .cls-9 {
        fill: #fff;
      }

      .cls-2, .cls-3, .cls-5, .cls-7 {
        fill: #eaf6ff;
      }

      .cls-2, .cls-6, .cls-9 {
        stroke: #2a4494;
      }

      .cls-4 {
        fill: #13283e;
        stroke: #eaf6ff;
      }

      .cls-5 {
        stroke: #2a4494;
      }

      .cls-6 {
        fill: #44cfcb;
      }

      .cls-7, .cls-8 {
        stroke: #44cfcb;
      }

      .cls-8 {
        fill: #2a4494;
      }
    </style>
  </defs>
  <g id="shirt">
    <path class="cls-1" d="M1359.08,1360.69v185.35l-125.47,171.09-173.94,68.44-216.71-59.88-51.33-173.94-19.96-136.87-74.14-76.99-99.8,68.44-159.68,34.22-185.35,28.51-94.1,57.03-19.96,59.88s-49.9,45.62-59.88,54.18S0,1674.36,0,1674.36v325.64h2000v-579.43l-218.9-82.69-105.5-42.77h-134.02l-31.37,62.73-14.26,57.03-79.84,31.37-39.92-39.92-17.11-45.62Z"/>
  </g>
  <g id="neck">
    <polygon class="cls-9" points="767.04 1382.08 983.04 1454.79 1186.21 1445.17 1347.67 1325.41 1347.67 1397.05 1329.5 1545.68 1186.21 1712.5 1004.43 1739.23 860.07 1669.72 789.5 1532.32 767.04 1382.08"/>
  </g>
  <g id="face">
    <path class="cls-9" d="M612.64,611.64l47.05-44.2,38.5-89.82,94.1-44.2,96.95-61.31,54.18-11.41,44.2,24.24,72.71-7.13,64.16-28.51,55.6,45.62,51.33,22.81,54.18,39.92,39.92,22.81,34.22,82.69,56.32,58.46v76.99l17.11,36.36v215.64l9.98,67.37-19.25,126.18-95.29,158.61-144.36,108-101.58,42.77-99.45,5.35-137.94-48.12-103.72-108-98.38-145.19s-29.94-150.89-30.53-153.03-12-178.22-12-178.22l-3.45-61.54,3.92-30.65,11.52-122.5Z"/>
  </g>
  <g id="hair">
    <path class="cls-4" d="M609.91,630.18l-6.42,116.55s-9.98,131.88-8.91,136.16-14.97-131.52-14.97-131.52l-52.4-47.05s-9.62-146.14,0-148.99,59.52-65.58,59.52-65.58l8.55-71.29,57.03-54.18v-34.22l31.37-31.37,22.81-57.03,48.48-25.66h45.62l65.58-28.51,82.69-17.11,34.22,25.66,74.14-25.66,69.5,15.33,12.48,12.83,103.72,6.42,66.3,60.95,55.6,55.6,31.01,25.66v20.32l63.45,26.73,33.5,77.7-12.12,58.46,31.37,43.49v61.31l-19.96,64.16-4.99,26.38-32.08,24.95-12.83,110.5,1.07-136.87-21.39-109.07-21.39-65.23-27.8-38.5-28.87-74.85-68.44-44.91-84.48-21.39-121.9-48.12-69,34.22s-68.94-24.59-72.15-24.59-180.18,74.32-176.44,76.99-81.27,60.95-81.27,60.95l-60.24,160.4Z"/>
    <path class="cls-4" d="M1457.04,994.1s27.8,74.85,32.08,73.78,84.48,98.38,84.48,98.38l-20.32,112.28-23.52,40.63-51.33,74.85-79.13,23.52-54.53,11.76v-49.19l9.62-74.85,47.05-75.92,33.15-112.28,6.42-104.79,16.04-18.18Z"/>
    <polygon class="cls-4" points="569.87 792.36 535.65 912.12 552.76 1100.32 601.95 1245.74 601.95 1074.65 569.87 792.36"/>
    <path class="cls-4" d="M622.03,1159.84l9.03,57.5-26.61,62.73s-7.84,60.59-7.6,59.41,49.66,93.5,49.66,93.5h109.78l18.53-32.79-31.37-69.86-57.63-69.86-69.26-151.13,5.47,50.5Z"/>
    <polygon class="cls-4" points="1477 769.31 1494.11 882.99 1477 963.92 1459.18 854.85 1477 769.31"/>
  </g>
  <g id="shapes">
    <polygon class="cls-6" points="899.28 934.1 855.79 969.03 785.93 1052.44 872.9 1016.79 892.86 1014.65 879.32 977.58 899.28 934.1"/>
    <polygon class="cls-6" points="1124.9 895.96 1194.05 943.72 1243.95 1017.86 1165.53 995.76 1134.17 1004.32 1156.98 965.82 1124.9 895.96"/>
    <path class="cls-6" d="M873.61,376.28l-31.01,141.86,110.85,75.56,62.73,91.25v94.1l-41.35,85.54-45.45,31.37h-186.95l-85.54-35.64-32.79,35.64s-12.12-130.46-11.41-134.02,21.39-168.24,21.39-168.24l119.76-156.83,119.76-60.59Z"/>
    <polygon class="cls-6" points="873.89 903.09 722.76 912.36 678.56 1021.43 678.56 1162.57 717.06 1282.34 795.48 1362.18 930.92 1422.06 1060.66 1442.02 1140.5 1383.56 1111.99 1327.96 1147.63 1229.58 1005.06 1256.67 895.28 1232.44 781.93 1156.87 761.26 1061.35 873.89 903.09"/>
    <path class="cls-6" d="M905.57,382.34c1.9-.48,139.25-22.34,139.25-22.34l43.6,16.28,96-16.28,59.52,45.98-51.8,122.97,13.9,62.02-105.86,72.71-25.43,99.45,50.14,108-23.64,9.62-73.78-144.36v-140.08l-102.65-45.98-19.25-168Z"/>
    <polygon class="cls-2" points="1279.83 427.07 1231.36 529.72 1345.42 660.89 1345.42 803.47 1205.69 860.5 1275.55 950.61 1331.16 1052.44 1382.49 1154.2 1442.37 854.79 1416.7 601.01 1324.03 492.65 1279.83 427.07"/>
    <polygon class="cls-6" points="1157.75 867.74 1263.97 954.89 1330.15 1098.71 1268.25 1256.97 1201.95 1301.88 1250.07 1117.96 1243.95 987.5 1157.75 867.74"/>
    <polygon class="cls-2" points="1351.31 1135.67 1381.27 1239.45 1320.04 1329.53 1112.63 1426.01 1250.72 1309.35 1351.31 1135.67"/>
    <path class="cls-6" d="M606.64,934.1c6.42-3.62,54.89-48.18,54.89-48.18l32.08,39.21-38.5,101.94,7.13,145.49,22.1,84.77-74.14-204.89-3.56-118.34Z"/>
    <path class="cls-6" d="M795.2,1419.74c2.5,0,240.95,62.02,240.95,62.02l-36.15,57.74,52.54,104.08-43.49,65.58-139.01-58.46,29.94-142.57-104.79-88.4Z"/>
    <path class="cls-6" d="M791.63,1436.85l87.68,76.99s-26.73,112.99-26.38,109.78-53.47-93.35-53.47-93.35l-7.84-93.42Z"/>
    <path class="cls-2" d="M1324.03,1359.15l-176.4,134.73,99.32,70.57s49.04-35.41,54.39-32.14,22.69-173.17,22.69-173.17Z"/>
    <polygon class="cls-2" points="1057.36 1470.36 1138.8 1470.36 1124.9 1502.44 1221.08 1575.15 1246.95 1590.12 1288.5 1564.46 1184.43 1667.11 1052.54 1709.17 1074.76 1596.53 1022.49 1547.35 1057.36 1470.36"/>
    <path class="cls-6" d="M173.57,1538.79c6.42-2.14,69.86-42.77,76.99-44.2s310.81-52.57,310.81-52.57l-218.14,188.02,319.37-6.35-138.3,228.76h355.01l-112.28,125.47H13.89v-288l102.65-42.37,62.73-83.1-5.7-25.66Z"/>
    <polygon class="cls-6" points="612.67 1426.01 636.94 1470.36 748.15 1458.89 774.82 1623.69 835.48 1756.93 1052.54 1825.37 1246.95 1750.51 1057.36 1904.5 1324.03 1876.69 1192.98 1987.9 795.2 1977.92 923.87 1823.23 597.2 1821.09 693.61 1589.76 405.97 1607.23 612.67 1426.01"/>
    <polygon class="cls-2" points="1381.27 1436.85 1423.95 1481.05 1530.88 1432.99 1554.41 1325.41 1682.72 1325.41 1879.48 1419.74 1644.23 1532.32 1903 1547.35 1573.59 1842.48 1903 1887.39 1584.35 1977.92 1246.95 1977.92 1443.14 1812.53 1147.63 1863.86 1381.27 1688.5 1288.5 1706.96 1400.43 1530.27 1381.27 1436.85"/>
    <polygon class="cls-7" points="1928.66 1426.01 1734.05 1510.99 1977.85 1530.27 1977.85 1442.02 1928.66 1426.01"/>
    <polygon class="cls-7" points="1654.92 1818.95 1941.5 1543.07 1977.85 1579.43 1977.85 1966.51 1725.5 1977.92 1939.36 1902.36 1930.8 1840.34 1654.92 1818.95"/>
  </g>
  <g id="nose">
    <polygon class="cls-1" points="1105.06 897.45 1149.61 954.48 1157.1 992.61 1129.3 1026.12 1090.8 1020.77 1112.19 1000 1087.24 995.82 1062.29 1012.93 1035.55 1038.59 1015.59 1040.73 987.08 1023.27 969.26 1008.65 945.73 1003.31 927.55 1014.71 938.96 1029.33 905.1 1025.05 884.43 1002.24 882.64 975.5 900.11 953.41 917.1 907.78 971.87 828.36 980.43 737.11 1105.06 897.45"/>
    <polygon class="cls-3" points="982.56 723.92 1024.98 649.78 1077.73 717.98 1084.92 855.6 982.56 723.92"/>
  </g>
  <g id="mouth">
    <path class="cls-5" d="M834.29,1150.22c4.28-1.07,91.25-21.39,91.25-21.39h94.34l49.66-9.98,78.42,6.42,62.73,17.11-38.5,36.36-57.03,67.72-76.99,29.94-89.11-15.68-61.31-45.62-33.5-45.62-19.96-19.25Z"/>
    <g id="teeth">
      <polygon class="cls-8" points="883.36 1146.83 976.98 1146.83 1023.08 1155.86 1072.98 1143.5 1153.3 1137.33 1153.3 1168.22 1046.37 1206.24 928.03 1195.31 892.39 1177.72 883.36 1146.83"/>
    </g>
  </g>
  <g id="eyes">
    <path class="cls-3" d="M1109.63,788.08c2.85-.95,30.89-19.49,30.89-19.49h77.94l66.53-6.65,58.46,13.07-48.95-16.4h52.28l-79.84-12.36s-54.89-16.63-59.41-15.09-54.65,7.01-56.08,7.01-30.89,18.06-30.89,18.06l-10.93,31.84Z"/>
    <path class="cls-3" d="M922.45,801.5l-20.91-19.01-108.83-6.18-63.21,10.46s-48.48,2.61-46.57,2.14,63.21-12.59,63.21-12.59c0,0-66.88-2.14-63.26-2.85s110.31-26.14,110.31-26.14l74.14-2.38,44.2,19.01,10.93,37.54Z"/>
  </g>
  <g id="eyebrows">
    <path class="cls-4" d="M1082.78,669.15c2.14-4.99,20.67-38.5,20.67-38.5l136.16-17.82,77.7,19.25,42.06,49.19-6.42,40.63-76.99-54.53-49.9-19.6-143.29,21.39Z"/>
    <path class="cls-4" d="M695.69,725.47l80.55-48.48,84.83-9.62s38.85,23.52,40.63,23.88,34.22-20.67,34.22-20.67l-71.29-40.63h-105.5l-67.72,30.65-29.23,41.35,7.13,29.23,26.38-5.7Z"/>
  </g>
</svg>