<?xml version="1.0" encoding="UTF-8"?>
<svg id="Layer_2" data-name="Layer 2" xmlns="http://www.w3.org/2000/svg" viewBox="0 0 238.3 238.3">
  <defs>
    <style>
      .cls-1 {
        fill: #99f;
      }

      .cls-2 {
        fill: #00005b;
      }
    </style>
  </defs>
  <g id="adobe_icons_set" data-name="adobe icons set">
    <g id="icons">
      <g>
        <path class="cls-2" d="M37.23,0h163.83c20.56,0,37.23,16.67,37.23,37.23v163.83c0,20.56-16.67,37.23-37.23,37.23H37.23c-20.56,0-37.23-16.67-37.23-37.23V37.23C0,16.67,16.67,0,37.23,0"/>
        <path class="cls-1" d="M97.86,145.48h-36.37l-7.4,23.98c-.21.86-1,1.46-1.89,1.42h-18.43c-1.05,0-1.41-.58-1.1-1.73l31.5-89.42c.31-.94.63-2.02.94-3.23.41-2.1.62-4.24.63-6.38-.07-.53.3-1.03.83-1.1.09-.01.18-.01.27,0h25.03c.73,0,1.15.26,1.26.79l35.74,99.5c.31,1.05,0,1.58-.95,1.58h-20.47c-.73.08-1.4-.39-1.57-1.1l-8.03-24.3ZM67.15,128.72h24.88c-.63-2.1-1.37-6.41-2.21-9.03-.84-2.63-1.73-5.43-2.68-8.42-.94-2.99-1.89-5.98-2.83-8.97s-1.81-5.88-2.61-8.66c-.8-2.78-1.49-5.33-2.12-7.63h-.16c-.89,4.25-1.99,8.46-3.31,12.6-1.47,4.72-2.97,9.55-4.49,14.49-1.51,4.93-3.01,11.44-4.48,15.64"/>
        <path class="cls-1" d="M186.61,136.89h-31.02c.45,3.19,1.54,6.26,3.2,9.02,1.76,2.62,4.25,4.68,7.16,5.91,4.02,1.8,8.37,2.73,12.77,2.71,2.95.07,5.89-.16,8.79-.69,3.16-.57,6.26-1.49,9.21-2.76.52-.42.79-.16.79.79v14.96c.03.41-.06.81-.24,1.18-.18.29-.42.53-.71.71-3.26,1.54-6.7,2.68-10.24,3.38-4.22.6-8.49.77-12.75.5-6.42.2-12.81-.98-18.74-3.46-4.76-2.1-8.97-5.28-12.29-9.29-3.09-3.78-5.4-8.14-6.77-12.83-1.36-4.63-2.05-9.43-2.05-14.25-.01-5.27.81-10.5,2.44-15.51,1.57-4.89,4.05-9.43,7.32-13.38,3.22-3.91,7.26-7.08,11.82-9.29,5.13-2.37,10.73-3.53,16.38-3.39,5.5-.07,10.95,1.01,16.01,3.16,4.04,1.83,7.58,4.61,10.31,8.11,2.57,3.33,4.54,7.09,5.81,11.1,1.24,3.87,1.88,7.9,1.89,11.97,0,2.31-.08,4.41-.24,6.3-.13,1.12-.34,2.24-.61,3.34-.08.72-.69,1.26-1.42,1.26-.63,0-1.71.08-3.22.24-1.52.16-4.23.09-6.48.15s-4.65.08-7.16.08M155.5,124.38h20.62c2.52,0,4.38-.03,5.59-.08.77,0,1.53-.08,2.28-.24v-.94c.09-1.88-.02-3.77-.33-5.63-1.75-5.52-6.97-9.19-12.75-8.97-5.41-.33-10.51,2.58-12.99,7.4-1.18,2.7-1.99,5.55-2.41,8.46"/>
      </g>
    </g>
  </g>
</svg>