<?xml version="1.0" encoding="UTF-8"?>
<svg id="Layer_2" data-name="Layer 2" xmlns="http://www.w3.org/2000/svg" viewBox="0 0 238.3 238.3">
  <defs>
    <style>
      .cls-1 {
        fill: #300;
      }

      .cls-2 {
        fill: #ff9a00;
      }
    </style>
  </defs>
  <g id="adobe_icons_set" data-name="adobe icons set">
    <g id="icons">
      <g>
        <path class="cls-1" d="M37.23,0h163.83c20.56,0,37.23,16.67,37.23,37.23v163.83c0,20.56-16.67,37.23-37.23,37.23H37.23c-20.56,0-37.23-16.67-37.23-37.23V37.23C0,16.67,16.67,0,37.23,0"/>
        <path class="cls-2" d="M116.19,145.07h-36.37l-7.43,24.29c-.21.86-1,1.46-1.89,1.42h-18.43c-1.05,0-1.42-.58-1.11-1.73l31.41-90.68c.31-.94.63-2.02.94-3.23.43-1.76.65-3.57.63-5.39-.08-.53.29-1.03.83-1.1.09-.01.18-.01.27,0h25.03c.74,0,1.16.26,1.26.79l35.84,99.77c.31,1.05,0,1.58-.95,1.58h-20.47c-.73.08-1.4-.39-1.58-1.1l-8-24.61ZM85.28,128.31h26.65c-.63-2.1-2.79-6.95-3.63-9.57-.84-2.63-1.99-4.71-2.94-7.7-.95-2.99-1.89-5.98-2.83-8.97-.94-2.99-1.81-5.88-2.61-8.66-.79-2.78-1.49-5.33-2.12-7.63h-.16c-.89,4.25-1.99,8.46-3.31,12.6-1.47,4.72-2.96,9.55-4.48,14.49-1.51,4.93-3.08,11.27-4.56,15.46h0Z"/>
        <path class="cls-2" d="M168.47,85.08c-3.25.13-6.4-1.13-8.66-3.46-2.25-2.43-3.44-5.66-3.31-8.98-.12-3.28,1.17-6.46,3.54-8.74,2.34-2.25,5.49-3.47,8.74-3.38,3.31-.18,6.54,1.05,8.9,3.38,2.19,2.37,3.36,5.51,3.23,8.74.14,3.33-1.09,6.57-3.38,8.98-2.4,2.37-5.68,3.62-9.04,3.46M158.28,169.21v-71.99c0-.95.42-1.42,1.26-1.42h17.88c.84,0,1.26.47,1.26,1.42v71.99c0,1.05-.42,1.58-1.26,1.58h-17.73c-.95,0-1.42-.52-1.42-1.58"/>
      </g>
    </g>
  </g>
</svg>