<svg width="1698" height="1920" viewBox="0 0 1698 1920" fill="none" xmlns="http://www.w3.org/2000/svg">
<path d="M782.934 17.6687L65.9581 431.652C25.0553 455.21 0 498.9 0 546.016V1373.98C0 1421.1 25.2695 1464.79 65.9581 1488.35L782.934 1902.33C823.837 1925.89 874.163 1925.89 915.066 1902.33L1632.04 1488.35C1672.94 1464.79 1698 1421.1 1698 1373.98V546.016C1698 498.9 1672.73 455.21 1632.04 431.652L915.066 17.6687C874.163 -5.88957 823.837 -5.88957 782.934 17.6687Z" fill="#2B2CA3"/>
<path d="M1455.05 962.059C1455.05 919.721 1454.84 879.269 1446.46 837.454C1442.26 816.18 1437.13 778.768 1424.24 752.673C1419 741.984 1412.4 733.18 1404.02 728.15C1340.83 690.318 1298.07 814.084 1291.58 856.632C1251.34 1123.66 1177.77 1238.52 1098.55 1322.98C1098.55 1322.98 1098.45 1323.09 1098.24 1323.4C1093.31 1328.64 1088.39 1333.67 1083.46 1338.7C1047.83 1373.18 950.587 1452.41 808.911 1454.4C695.633 1452.83 582.878 1409.23 496.426 1322.77C409.974 1236.32 366.382 1123.55 364.81 1010.27C366.801 868.684 446.127 771.327 480.498 735.696C485.528 730.77 490.558 725.845 495.798 720.919C496.112 720.709 496.217 720.605 496.217 720.605C580.783 641.273 695.528 567.704 962.534 527.462C1005.08 521.069 1128.73 478.207 1091.01 415.014C1085.98 406.63 1077.17 400.028 1066.49 394.788C1040.39 381.898 1002.88 376.763 981.71 372.571C940.004 364.292 899.555 364.082 857.219 364.082C525.768 364.082 256.98 632.889 256.98 964.365C256.98 1124.29 318.388 1273.73 430.828 1387.33H431.98V1388.48C545.573 1500.93 695.004 1562.34 854.914 1562.34C1186.26 1562.34 1455.15 1293.54 1455.15 962.059H1455.05Z" fill="url(#paint0_linear_1957_77443)"/>
<path d="M1074.98 1177.21C1075.92 1176.37 1076.97 1175.43 1077.91 1174.59C1116.79 1139.27 1137.85 1100.5 1143.19 1090.02C1176.41 1017.08 1195.48 937.015 1207.43 858.416C1207.53 857.368 1225.66 753.723 1284.24 726.161C1286.44 725.113 1288.64 724.275 1290.84 723.541C1273.13 685.29 1248.51 649.449 1216.97 617.905C1214.66 615.599 1212.36 613.503 1210.05 611.198C1207.85 608.892 1205.65 606.482 1203.34 604.281C1171.8 572.737 1135.96 548.109 1097.71 530.398C1096.98 532.599 1096.14 534.8 1095.09 537.001C1067.43 595.583 963.793 613.713 962.849 613.818C884.257 625.66 804.197 644.838 731.263 678.059C721.727 682.879 689.032 700.695 656.652 732.868C656.233 733.287 655.919 733.602 655.499 733.916C654.871 734.545 654.242 735.278 653.508 736.012C651.832 737.794 650.05 739.575 648.374 741.462C540.125 857.682 545.365 1042.44 662.101 1159.19C775.694 1272.79 953.838 1280.75 1070.36 1181.3C1071.94 1179.94 1073.51 1178.68 1075.08 1177.32L1074.98 1177.21Z" fill="url(#paint1_radial_1957_77443)"/>
<defs>
<linearGradient id="paint0_linear_1957_77443" x1="1226.29" y1="364.082" x2="74.1029" y2="1856.75" gradientUnits="userSpaceOnUse">
<stop stop-color="#71D0FF"/>
<stop offset="1" stop-color="#2D12D3"/>
</linearGradient>
<radialGradient id="paint1_radial_1957_77443" cx="0" cy="0" r="1" gradientUnits="userSpaceOnUse" gradientTransform="translate(1182.95 598.414) rotate(134.998) scale(780.129 776.595)">
<stop stop-color="#71D0FF"/>
<stop offset="1" stop-color="#524CF6"/>
</radialGradient>
</defs>
</svg>
